<svg xmlns="http://www.w3.org/2000/svg"><symbol id="brachiosaurus" viewBox="0 0 256 256"><path d="M60.2 169.5a31.9 31.9 0 0 0-7.7.9c0 .3.3.6.8 1a12.3 12.3 0 0 0 2 1l2.6 1 2.8.8 2.3.6 1.5.2h2.1a10.1 10.1 0 0 0 2.5-.4l2.4-.8a5 5 0 0 0 1.7-1.5 30.3 30.3 0 0 0-6.4-2.2 37 37 0 0 0-6.6-.6z"/><path d="M128.5 4.8a126 126 0 1 0 126 126 126 126 0 0 0-126-126zm82.2 69.6v.3a7.8 7.8 0 0 1-.1 1.3 15.2 15.2 0 0 0-.3 2.1 19.1 19.1 0 0 0-.4 2.1c-.1.6-.2 1.1-.2 1.3a7.6 7.6 0 0 0-.9 1.8 15.9 15.9 0 0 0-.7 2c-.2.7-.3 1.3-.5 2a15.4 15.4 0 0 1-.8 1.9 21.1 21.1 0 0 1-1.6 3 30.1 30.1 0 0 0-1.6 3.1l-19.8 27.4c-.1.3-.1.5-.2.6l-.3.3-.3.2-.4.5-1.6 2.3-2.1 2.8-2.1 3.2a29 29 0 0 0-2 3.3 25.3 25.3 0 0 0-1.4 2.9 8 8 0 0 0-.5 2.3c0 .3-.2.5-.2.7s.2.5.2.7c-.2.1-.3.2-.3.4s.1.4.3.4v10.1a2.2 2.2 0 0 1-.3 1l-.3 1.1a6.7 6.7 0 0 0-.6 1.2c-.1.5-.5.8-.5 1.2v1.6c0 .1.2.2 0 .4s-.2.5-.4.8l-.7.8a1.1 1.1 0 0 1-.5.4v.4c0 .1.7.2.8.4s.8.4.8.4v2.8a19.7 19.7 0 0 1-.6 3.5c-.2 1.2-.5 2.3-.7 3.5s-.5 2.3-.7 3.5a19.8 19.8 0 0 0-.3 3.5 42.9 42.9 0 0 0 .3 6.2 40.9 40.9 0 0 0 1 6.1 35.4 35.4 0 0 0 2.2 5.7 21.8 21.8 0 0 0 3.3 5.2 6.2 6.2 0 0 1-1.2.8l-1.7.7-1.7.4a3.4 3.4 0 0 1-1.4.1h-.5l-1-.2-1.2-.3-.9-.2h-.8l-.7-.3c-.3-.2-.5-.3-.6-.5a1.6 1.6 0 0 1-.4-.7 26.8 26.8 0 0 0 .2-4l-.3-4.3c-.2-1.4-.4-2.8-.5-4.2l-.6-4a2.5 2.5 0 0 0-.2-.7.8.8 0 0 0-.2-.6c.1-1.1.1-2.3.1-3.6s0-2.6-.1-4a26.3 26.3 0 0 0-.6-3.9 11.6 11.6 0 0 0-1.4-3.6 3.7 3.7 0 0 0-1.4 1.8 17.3 17.3 0 0 0-.8 2.7c-.2.9-.2 1.9-.4 2.8s-1 1.8-1 2.4v1.5a16.1 16.1 0 0 1 0 2.2v3.8c0 2.8-.2 5.5-.1 8.2a75.4 75.4 0 0 0 .6 8.1c0 .1.1.2.4.3l.8.6.8.7.3.6c0 .3-.2.5-.8.8l-1.8.9-2 .8-1.3.4h-.1l-4.8-2.5a.6.6 0 0 1-.2-.5v-.6a29.9 29.9 0 0 1 0-3 14.2 14.2 0 0 0 .2-3c0-1.2-.2-2.5-.3-3.7l-.6-3.7-.6-3.7a25.6 25.6 0 0 1-.3-3.9c0-1.2.1-2.3.1-3.3a27 27 0 0 1 .4-2.8c.2-.9.3-1.8.5-2.7s.4-2 .7-3.2a2 2 0 0 0-.1-.7 5.6 5.6 0 0 0-.1-.7 6.5 6.5 0 0 0-1.9.2l-1.8.5-1.9.6-1.9.5-1.3.2h-1.1c-.3.1-.7-.1-1-.1h-2.8a44.2 44.2 0 0 1-5.2-.1h-7.7a4 4 0 0 0-2.3.8v5.2c0 1.7-.1 3.3-.1 5l-.3 5.1c-.1 1.7-.2 3.4-.2 5.1v2.5a8.5 8.5 0 0 1 0 1.6v1c0 .5.7 1.1 1.2 1.6l1.3 1.7a9.4 9.4 0 0 1 1.2 1.8 3 3 0 0 1 .6 1.8.3.3 0 0 0-.1.2 7.8 7.8 0 0 1-4 .4c.1.5 0 .7-.2.8h-2.7l-2.3-.2a4.4 4.4 0 0 1-1.8-.9 2.1 2.1 0 0 1-.7-1.8 6.2 6.2 0 0 1 .1-1.3l.3-1.3a5 5 0 0 0 .3-1.3 5.9 5.9 0 0 0 .2-1.3 22.5 22.5 0 0 0-.3-3.8c-.2-1.3-.4-2.4-.7-3.6s-.5-2.6-.8-3.8a30.8 30.8 0 0 1-.7-3.9h-.4c-.2 0-.4.7-.5.9l-.4.7-.3.5c-.5.7-1 1.5-1.6 2.2s-1 1.5-1.4 2.3a25.6 25.6 0 0 0-1.1 2.4 7.7 7.7 0 0 0-.4 2.7 4.5 4.5 0 0 0 .3 1.6l.7 1.5a10.5 10.5 0 0 0 .8 1.1 1.5 1.5 0 0 1 .3.6.8.8 0 0 1-.4.7l-1 .5-1.3.3h-2.6l-1.7-.2a1.8 1.8 0 0 1-1.1-.4 2.7 2.7 0 0 1-.7-.8 10.3 10.3 0 0 1-.5-1.6 14.2 14.2 0 0 1-.5-1.6 5.1 5.1 0 0 1-.3-1.7 3.4 3.4 0 0 1 .4-1.5l.9-1.5 1.1-1.6.8-1.4 2.4-5.9c.8-1.9 1.6-3.9 2.5-5.8l.4-.8.6-.7.4-.7a2.4 2.4 0 0 0 .2-.8.7.7 0 0 0-.4-.7h-1.2l-8.9 2.5a3.2 3.2 0 0 1-1.3.5l-1.8.4a4.4 4.4 0 0 0-1.6.6 1 1 0 0 0-.6 1 2 2 0 0 0 .2.9c.2.2.4.5.7.6l.8.6.7.6-.4.4-1.2-.8-1.4-.8a4.7 4.7 0 0 0-1.5-.6 4 4 0 0 0-1.5-.3 17.3 17.3 0 0 0-3.8.5l-3.9 1.5-4.1 1.1a19.3 19.3 0 0 1-4.2.5 17.7 17.7 0 0 1-3.4-.4 32.6 32.6 0 0 1-4.8-1.1l-5.4-1.7a46.7 46.7 0 0 1-5-2.3 15.2 15.2 0 0 1-3.6-2.6 4.2 4.2 0 0 1-1.4-3 4 4 0 0 1 1.1-3.2 5.3 5.3 0 0 1 2.7-1.6c1.1-.4 2.2-.1 3.5-.2s2.3.3 3.3.3h3.9a3.1 3.1 0 0 1 1.3-.2h2.3l2.5.4 2 .2 1.9.5 1.8.9 1.8.7a4.5 4.5 0 0 0 2 .4 8.6 8.6 0 0 0 3.9-1.1 25 25 0 0 0 4.1-2.5 40.8 40.8 0 0 0 3.9-3.1l3.2-2.7a7.6 7.6 0 0 1 1.9-1.2l1.8-1.1a10.9 10.9 0 0 0 1.7-1.3 5 5 0 0 0 1.5-1.7 39.1 39.1 0 0 0 2.6-4.4 39.9 39.9 0 0 1 2.7-4.4 4 4 0 0 1 1.3-1.3l1.5-1 1.6-.9a8.3 8.3 0 0 0 1.6-.9l3.6-2.6c1.2-.9 2.3-1.9 3.4-2.9l3.3-3 3.5-2.8a17.2 17.2 0 0 1 3.7-2.2l3.9-1.8 2.5-1.3 2.4-1.3 2.6-1.1a11.2 11.2 0 0 1 2.6-.8l22.2-3.2a11.8 11.8 0 0 0 3.5-1.1 21 21 0 0 0 3.3-2.2 28 28 0 0 0 3.2-2.9c1-1 1.9-2.1 2.9-3.2s1.8-2.1 2.6-3.2l2.3-2.7 7.6-8.9.4-.3.5-.6a1.2 1.2 0 0 0 .5-.5l.3-.2 2-3.3h.3l.3-.3.4-.2.2-.2.4-.4.4-.4a12.5 12.5 0 0 0 1.2-1.7l1.4-1.9 1.3-2 1-1.7a11.9 11.9 0 0 0 .8-2c.2-.7.5-1.4.7-2.1s.5-1.4.8-2.2 1-1.4 1-2.2v-6a5.3 5.3 0 0 0-1.1-3.1 16 16 0 0 0-2.6-2.6 15.4 15.4 0 0 0-3.4-1.7 8 8 0 0 0-3.1-.7 21.5 21.5 0 0 0-5.8.7 12.4 12.4 0 0 0-5.1 2.6A9.2 9.2 0 0 0 180 64l-1.6 1.8-1.8 2-1.8 1.9-1.8 1.2a3.2 3.2 0 0 1-1.8.6 1.7 1.7 0 0 1-1.6-1.6v-.5a1 1 0 0 0 .1-.4 2.4 2.4 0 0 1 .2-.8c0-.3.1-.5.1-.8s.1-.3.1-.4a4.3 4.3 0 0 0-.3-1.7 5.2 5.2 0 0 0-.6-1.3l-.6-1.2a5.1 5.1 0 0 1-.2-1.3c.4 0 .7 0 .8-.2l.5-.6c.1-.3.3-.5.4-.8l.8-.6h2.8c.5 0 .8-.1.9-.4l.8-.7h.3c.1 0 .2.2.3.4a.5.5 0 0 0 .2.4c0-.2.1-.3.4-.4l.6-.4 1.1-.6 1.3-.8 1.4-.8 1-.6.6-.4a13.5 13.5 0 0 1 2.1-1.3l1.7-.6 2-.2h6.3a9.4 9.4 0 0 0 1.5.6l1.5.3 1.6.3 1.5.5a13.7 13.7 0 0 1 4.5 3 18.1 18.1 0 0 1 3.2 4.1 22.7 22.7 0 0 1 1.7 5 24.7 24.7 0 0 1 .5 5.4v2.4z"/></symbol><symbol id="micropachycephalosaurus" viewBox="0 0 256 256"><path d="M135.3 150.8c-.2 0-.4.2-.4.6h-.1c-.3 0-.4.1-.4.4s.1.6.4.6.4-.2.4-.6h.1c.4 0 .5-.1.5-.4s-.1-.6-.5-.6zm1.5-.8a2.4 2.4 0 0 0-.9.8h.3a1.5 1.5 0 0 0 1.1-.4 2.2 2.2 0 0 0 .9-.7h-.3a2 2 0 0 0-1.1.3zm3-2.6c-.3 0-.4.2-.4.6h-.1a.5.5 0 0 0-.5.5h-.1c-.3 0-.5.2-.5.6s.2.6.5.6.5-.2.5-.6h.1c.3 0 .4-.2.4-.6h.1a.5.5 0 0 0 .5-.5c0-.4-.2-.6-.5-.6zm23-5.8a17.4 17.4 0 0 1-1.2 1.4 1.7 1.7 0 0 0 .8 1l1.1.2a2.4 2.4 0 0 0 1.4-.5 4 4 0 0 0 1-1.2 10 10 0 0 0 .8-1.4c.2-.6.4-1.2.5-1.2h-3.4c-.2 0-.5 1.1-1 1.7z"/><path d="M130.8 1.8a126 126 0 1 0 126 126 126 126 0 0 0-126-126zm94.5 74.8l-1.5.4h-3.7a43.7 43.7 0 0 0-5.2 1.3 15 15 0 0 0-3.6 1.5 7.3 7.3 0 0 0-2.4 2.2 11.9 11.9 0 0 0-1.8 2.9 40.4 40.4 0 0 0-1.5 3.9c-.4 1.4-1 3.1-1.6 5l-1.2 3.4-1.2 3.1a29.6 29.6 0 0 1-1.5 3.1c-.5 1.1-1.1 2.1-1.7 3.2a29 29 0 0 1-2.7 4.1l-2.9 3.6c-1 1.2-2 2.4-3.1 3.5l-3 3.8a8.7 8.7 0 0 0-1.4 2.7 18.6 18.6 0 0 1-1 2.5 7.1 7.1 0 0 1-1.3 2.2 5.2 5.2 0 0 1-2.5 1.6l-1.3.5-2 .7-2 .6-1.4.4c.3 1 .4 1.6.2 2a2 2 0 0 1-.9.9 2.3 2.3 0 0 1-1.2.6 1.4 1.4 0 0 0-.8 1l-2.3 6.7a2.5 2.5 0 0 1-1 1.5 7.5 7.5 0 0 1-1.8.8 12.3 12.3 0 0 1-2 .2 10.3 10.3 0 0 1-1.8-.1h-2a.8.8 0 0 1-.4-.8c0-.2.1-.3.1-.4l.3-.3.2-.3c.1-.1.1-.2.1-.4a15 15 0 0 0-3.4 1.6l-3.4 2-3.3 2.2a27.9 27.9 0 0 1-3.3 1.9l-.9.5-1.1.6-1 .7a1.5 1.5 0 0 0-.4 1.1v.5l1.8 1.6 1.9 1.8 2 1.5a12 12 0 0 0 2.1 1.3l1.8.7 1.9.5 1.9.6 1.7.9 1.3 1.4 1.1 1.5 1.1 1.5a6.1 6.1 0 0 0 1.5 1.2 3.4 3.4 0 0 0 1.7.6l2 .7a5.2 5.2 0 0 1 1.8 1 2.1 2.1 0 0 1 .7 1.7v.5l-5.5 1.1-1.1.4-1.2.2h-.5l-1.2-.6-1.7-1-1.7-1-1-.8-.2-.2-.3-.5-.3-.5-.3-.5-2.2-4.4-1.2-.5-1.8-.7-2.1-.9-2.1-1-1.8-.8-1.1-.6a12.8 12.8 0 0 1-2.7-1.6 13.3 13.3 0 0 1-2.6-2.1 10.5 10.5 0 0 1-2-2.7 8.2 8.2 0 0 1-1.1-3.1l-.5.3-.6.3-.9.6a8.3 8.3 0 0 1-1.7 1.2 19.1 19.1 0 0 1-2.1 1.4l-2.1 1.4-1.7 1-.9.5-6 3.5a33.1 33.1 0 0 0-4.5 3.4 19.2 19.2 0 0 0-3.6 4.4c-.8 1.7-.7 3.9-2.3 6.6v1.6a10.5 10.5 0 0 0 1.1 4.4 8.7 8.7 0 0 0 2.1 2.5 9.4 9.4 0 0 0 2.6 1.4l2.6 1a5.6 5.6 0 0 1 1.9.9 6 6 0 0 1 .8 2h-13.3l-.2-.4-.3-.2h-.5l-.6-.3a3.4 3.4 0 0 1-1.3-1.6 6.5 6.5 0 0 1-.4-2.1 9 9 0 0 1 .2-2.3c0-.8.2-1.4.2-2v-1.5a8.6 8.6 0 0 1 .3-1.7c.2-.8.3-1.7.6-2.7s.5-2 .7-3.1.6-2.2.8-3.2.5-1.8.7-2.6.3-1.4.4-1.7a7.7 7.7 0 0 1 .7-2 7 7 0 0 1 1-1.9 13.5 13.5 0 0 0 4.4-2.6 24.2 24.2 0 0 0 3.2-3.2l2.9-3.4a16.7 16.7 0 0 1 3.4-3.1l1.5-.7 2-.8 2.3-.9 2.1-1.1a7.6 7.6 0 0 0 1.6-1.4 2 2 0 0 0 .6-1.5v-1.3a1.7 1.7 0 0 0-.6-1.2l-.8-.3-1.2-.5-1.1-.6-.8-.3a9.4 9.4 0 0 1-2-1.2l-2.7-1.9-2.5-1.5a3.1 3.1 0 0 0-1.7-.6h-7.8c-6 0-11.8-.1-17.5.1s-11.6.2-17.6.2c-4.3 0-8.6-.1-12.7-.4a98.5 98.5 0 0 1-12.3-1.3 98.3 98.3 0 0 1-11.9-3.1 73.5 73.5 0 0 1-11.7-5l-1.4-.7-1.6-1a8 8 0 0 1-1.3-1.3 3 3 0 0 1-.5-1.6 9.5 9.5 0 0 1 2.1.4l2.4.9 2.2 1 1.4.6c1.5.6 3 1.2 4.7 1.7l5 1.4 5.1 1 4.8.3h26.3l2.5-.3 3.4-.5 3.6-.6 3.4-.7 2.6-.5 6.8-1.4c2.5-.4 4.9-.9 7.3-1.5s4.9-1.3 7.2-2.1a50.4 50.4 0 0 0 6.6-2.8l3.8-1.8 3.8-1.6 3.9-1.3a27.1 27.1 0 0 1 4.1-.9h2.8l1.8-.2h1l1.9-.4 3.3-.7 4-.9 4-.9c1.3-.3 2.4-.9 3.3-1.1s1.6-.7 1.9-.7h6.5a64.6 64.6 0 0 1 7.8.7c2.6.2 5.2.5 7.8.5a9.8 9.8 0 0 0 5-1.3 17.8 17.8 0 0 0 4.5-3.4 30.5 30.5 0 0 0 3.8-4.9q1.8-2.9 3.3-5.7c.9-1.8 1.8-3.7 2.5-5.5l1.8-4.8c.4-1.1.7-2.3 1.1-3.4a28.1 28.1 0 0 1 1-3.1 12.3 12.3 0 0 1 1.2-2.6 6.5 6.5 0 0 1 1.7-2 7.4 7.4 0 0 1 2.6-1.5 10.2 10.2 0 0 1 3.8-.8h3c.8 1.6 1.8.9 3 1.3a36.8 36.8 0 0 1 3.5 1.5 14.9 14.9 0 0 1 3 1.8 2.7 2.7 0 0 1 1.2 2.1 2.5 2.5 0 0 1-.5 1.5 2.4 2.4 0 0 1-1.1.4z"/></symbol><symbol id="velociraptor" viewBox="0 0 256 256"><path d="M128.2 3.8a126 126 0 1 0 126 126 126 126 0 0 0-126-126zm108.9 115a28.1 28.1 0 0 1-4.1 0h-3.2c-3 0-6-.2-9-.5l-9.1-.9-9-1a91 91 0 0 0-9.1-.4 146.1 146.1 0 0 0-16.1.9 76.3 76.3 0 0 0-15.7 3.7l-30.2 10.9a2.4 2.4 0 0 0-1.2 1.6 10.7 10.7 0 0 0-.8 2.7c-.3 1-.5 1.9-.7 2.8a9.8 9.8 0 0 1-.6 2 3.6 3.6 0 0 0 1.4 1.3l2.4 1.1 2.9 1.2 2.7 1.4a12.9 12.9 0 0 1 2.1 1.9 4.1 4.1 0 0 1 .8 2.4 1.7 1.7 0 0 1-.5 1.2l-1.2.9-1.6.7-1.6.8a4 4 0 0 0-1.2 1 2.5 2.5 0 0 0-.5 1.5 3.7 3.7 0 0 0 .8 2.5 7.4 7.4 0 0 0 1.9 1.6l2.4 1.3a8.7 8.7 0 0 1 2.1 1.7 20.1 20.1 0 0 1 2 3.4 27.2 27.2 0 0 1 1.3 3.7 23.2 23.2 0 0 1 .7 3.8c.2 1.3.1 2.6.3 3.9l1.3 1.3v7.1h.8l1.1.2.9.2.6.2a5.5 5.5 0 0 0 .1.9c0 .2-.1.5-.1.9a9.3 9.3 0 0 1-.4 1.3l-.6.9a1 1 0 0 1-.9.3h-5.1c-.2 0-.5-.5-1-.8l-1.5-.9-1.5-.7c-.6-.4-.9-.9-1.2-.9h-6.1a4.8 4.8 0 0 1 .6-2.9 5.2 5.2 0 0 1 1.7-1.6 6.5 6.5 0 0 1 2.1-.6l2.1-.4a3.8 3.8 0 0 0 1.6-.6 1.4 1.4 0 0 0 .6-1.3v-.6l-.9-1.8a17.9 17.9 0 0 0-1.2-2.4l-1.5-2.4a10 10 0 0 0-1.6-1.8l-1.3-.8-1.8-1a9.5 9.5 0 0 1-1.7-1c-.6-.4-.9-.7-1-1.1s-.6-1.8-.9-2.9a30.1 30.1 0 0 0-1.1-3.2 9 9 0 0 0-1.7-2.6 4.4 4.4 0 0 0-2.9-1 23.3 23.3 0 0 0-5.9.8 25.3 25.3 0 0 0-10.7 5.7 18.2 18.2 0 0 0-3.8 4.5l-.4.2h-.3l-.2-.3c0-.2-.1-.4-.1-.7a1.4 1.4 0 0 1-.2-.6.4.4 0 0 0-.1-.3h-.3a1.6 1.6 0 0 0-1.1.5 3.6 3.6 0 0 0-.8 1.2l-.9 1.3a3.9 3.9 0 0 1-.8 1 5.6 5.6 0 0 1-.7-1.7v-1.6a9.2 9.2 0 0 1 .4-2.9 27.6 27.6 0 0 1 .8-2.7 27.7 27.7 0 0 0 1-2.6 23.2 23.2 0 0 0 .3-2.7h-4.8c0-1.7.2-1.8.7-2.4a4.6 4.6 0 0 1 1.6-1.5 5 5 0 0 1 2.1-.9 7.6 7.6 0 0 1 2.1-.3 15.1 15.1 0 0 1 3 .2l2.9.4 2.8.5 2.9.2h2.3a2.3 2.3 0 0 0-1.7-1.3l-2.5-.5-2.6-.2c-.9 0-1.6.2-2.2-.2l-3.9-2.1h-.3a16.1 16.1 0 0 0-3.1-.1 10.6 10.6 0 0 1-3.1.2 7.3 7.3 0 0 1-3-.7l-2.6-1.4-2.6-1.3a5 5 0 0 0-2.9-.6v6l1.6-.2 1-.3.9-.5a3.5 3.5 0 0 1 .9-.6l.6-.2v2.7l2-.6c0 .1.2.2.2.5s.1.3.1.5a5.5 5.5 0 0 1-1.3 3.8 22.6 22.6 0 0 1-3.2 2.9 29.2 29.2 0 0 0-4.6-1.3l-4.7-.6V149a10.4 10.4 0 0 0-1.8.5l-2 1a11.8 11.8 0 0 0-1.9 1.1c-.4.5-.9.9-.9 1.2v6.9a9.3 9.3 0 0 0 2.9-.3l1.9-.6 1.2-.6a2.1 2.1 0 0 1 1.2-.3h.3a1.5 1.5 0 0 1 .3.7l.5 1.2c.1.5.3.9.4 1.3a4.1 4.1 0 0 1 .1 1 4.6 4.6 0 0 1-.4 1.9 5.9 5.9 0 0 1-1 1.7 7 7 0 0 1-1.6 1.4 3.7 3.7 0 0 1-1.8.5h-1l-3-.5a22.9 22.9 0 0 1-3.6-.7 13.3 13.3 0 0 1-3.2-1.2 2.6 2.6 0 0 1-1.4-2.1v-11.6l.9-.8 1.8-1.6 2.4-2.1a28.5 28.5 0 0 0 2.3-2.6 15.1 15.1 0 0 0 1.8-2.6 5.2 5.2 0 0 0 .8-2.5 3.8 3.8 0 0 0-1.2-2.8 11.8 11.8 0 0 0-2.8-2 18.3 18.3 0 0 0-3.2-1.4l-2.5-.9-1.3-9q-.3-1.2-.6-2.7a10.9 10.9 0 0 0-1.1-2.7 6.3 6.3 0 0 0-1.8-2.1 3.9 3.9 0 0 0-2.6-.9 9.8 9.8 0 0 0-3.6.5 17.3 17.3 0 0 0-3.2 1.4l-1.6 1.1-2.5 1.4-3 1.8-2.9 1.7c-1 .5-1.8 1.2-2.5 1.6s-1.3 1.2-1.7 1.2h-1l-1.7-.3a12 12 0 0 1-2-.3 4.7 4.7 0 0 1-1.4-.8c-.5-.3-.3-.8-.3-1.4v-1.8c0-.6-.3-.9 0-.9h1.6s-.1-.1 0-.4a2.5 2.5 0 0 1 .1-.8c.1-.3.1-.6.2-.8a.7.7 0 0 0 0-.5 2.4 2.4 0 0 0-.8-.9l-.9-.5a1.2 1.2 0 0 1-.6-.6 2.1 2.1 0 0 1-.3-1.2 5 5 0 0 1 .2-1.3 7.5 7.5 0 0 1 .7-1.2c.3-.3.2-.6.6-.8l.8-.4v.8a4.7 4.7 0 0 0 .6 1.5c.1.5.6.7 1.2.7a1.2 1.2 0 0 0 1-.5 5.2 5.2 0 0 0 1-1.1 10.4 10.4 0 0 0 .6-1.6c.2-.5.3.3.3-1.4H22.7c-.3 0-.5-.2-.9-.5a3.3 3.3 0 0 1-1-.6 3.6 3.6 0 0 1-.9-.8 1.3 1.3 0 0 1-.4-1 4.6 4.6 0 0 1 1-3.2 10 10 0 0 1 2.6-1.8l3.2-1a15.8 15.8 0 0 0 2.8-.8l2.2-.9 3.3-1.5 3.3-1.6a14.1 14.1 0 0 1 2.2-1.1h13.5a7 7 0 0 1 3.8 1 12.6 12.6 0 0 1 3.1 2.5A20.4 20.4 0 0 1 63 101l2.3 3.3a18.6 18.6 0 0 0 2.2 2.5 4.2 4.2 0 0 0 2.5 1 .8.8 0 0 0 .8-.4c.1-.3.4-.4.8-.4a4 4 0 0 1 1.5.3l1.5.7 1.5.7a4.5 4.5 0 0 0 1.6.3l4.1-.2 4-.4 4.1-.5a27.5 27.5 0 0 1 4.1-.2 55.8 55.8 0 0 1 7.2.4 40.2 40.2 0 0 1 7.2 1.5c1.6.6 3.3 1.2 5 2s3.3 1.5 5 2.1a53.4 53.4 0 0 0 5.2 1.8 20 20 0 0 0 5.4.7h2.6c4.2-1 8.5-1.9 12.7-2.7s8.5-1.6 12.7-2.3 8.5-1.1 12.8-1.5 8.6-.6 13-.6h8.8a34 34 0 0 1 5 1l36.1 7.1h11.6c-.8 0-1.9 1-3.1 1.4a27.5 27.5 0 0 1-4.1.2z"/></symbol></svg>